# xmcd CD database file
#
# Track frame offsets:
#	150
#	18139
#	34537
#	50625
#	64462
#	81175
#	96631
#	111412
#	129900
#	147260
#	162118
#	176302
#	187247
#
# Disc length: 2739 seconds
#
# Revision: 0
# Processed by: cddbd v1.5.1PL2 Copyright (c) Steve Scherf et al.
# Submitted via: CDex 1.51
#
DISCID=b40ab10d
DTITLE=Gerd Rube - The Best Of
DYEAR=1998
DGENRE=Country
TTITLE0=The Florida Keys Song
TTITLE1=Happy Day
TTITLE2=Ace In The Hole
TTITLE3=Running Faster
TTITLE4=Our Song
TTITLE5=Now That You´re Here
TTITLE6=Brandnew World
TTITLE7=Broken Hearts Bourbon Whiskey 
TTITLE8=I´m Still The Same
TTITLE9=Popa
TTITLE10=Heal The Wounds
TTITLE11=Killing Me
TTITLE12=Everlasting Love
EXTD=YEAR: 1998
EXTT0=
EXTT1=
EXTT2=
EXTT3=
EXTT4=
EXTT5=
EXTT6=
EXTT7=
EXTT8=
EXTT9=
EXTT10=
EXTT11=
EXTT12=
PLAYORDER=
